<?xml version="1.0" encoding="utf-8"?>
<!-- Generator: Adobe Illustrator 26.0.1, SVG Export Plug-In . SVG Version: 6.00 Build 0)  -->
<svg version="1.1" id="Layer_1" xmlns="http://www.w3.org/2000/svg" xmlns:xlink="http://www.w3.org/1999/xlink" x="0px" y="0px"
	 viewBox="0 0 80 80" style="enable-background:new 0 0 80 80;" xml:space="preserve">
<style type="text/css">
	.st0{stroke:#000000;stroke-width:4;stroke-miterlimit:10;}
</style>
<g>
	<path class="st0" d="M67.25,48.7c-0.04,0-0.07,0-0.11,0c-2.11-0.02-3.94,1.32-4.52,3.34c-3.09,10.87-10.67,17.84-21.93,17.84
		c-14.73,0-23.63-13.34-23.63-29.89c0-16.68,7.51-29.89,23.35-29.89c11.09,0,18.51,6.97,21.81,16.97c0.71,2.16,2.71,3.56,4.98,3.55
		c0.01,0-0.95-0.08-0.93-0.08c0.27,0,1.53,0.17,1.78,0.11c1.3-0.31,2.52-1.08,2.2-2.43C66.66,13.05,55.8,3.58,40.83,3.58
		C20.68,3.58,9.7,20.12,9.7,40c0,20.99,11.68,36.42,30.44,36.42c16.18,0,26.24-10.52,29.88-24.33c0.46-1.75-0.9-3.4-2.72-3.39
		C67.28,48.7,67.27,48.7,67.25,48.7z"/>
</g>
<path class="st0" d="M55.12,35.28h-36c0,0-1.61,0-2.14,0c-1.95,0-3.54,2.06-3.54,4.6v0c0,2.54,1.58,4.6,3.54,4.6h38.14
	c1.95,0,3.54-2.06,3.54-4.6v0C58.66,37.34,57.08,35.28,55.12,35.28z"/>
<path d="M20.15,28.87c0,0-1.49,6.41,0.68,6.41c2.3,0,2.29,8.99,0,9.2c-2.04,0.18-0.06,7.75-0.06,7.75l-8.97-11.61L20.15,28.87z"/>
</svg>
